<?xml version="1.0" standalone="no"?>
<!DOCTYPE svg PUBLIC "-//W3C//DTD SVG 20010904//EN"
 "http://www.w3.org/TR/2001/REC-SVG-20010904/DTD/svg10.dtd">
<svg version="1.0" xmlns="http://www.w3.org/2000/svg"
 width="1280.000000pt" height="1280.000000pt" viewBox="0 0 1280.000000 1280.000000"
 preserveAspectRatio="xMidYMid meet">

<g transform="translate(0.000000,1280.000000) scale(0.100000,-0.100000)"
fill="#000000" stroke="none">
<path d="M6287 9420 c-87 -22 -189 -99 -239 -180 -13 -22 -726 -1475 -969
-1977 -44 -90 -437 -895 -875 -1790 -438 -896 -805 -1650 -816 -1678 -27 -68
-22 -180 12 -250 68 -139 234 -214 418 -188 42 6 98 21 124 32 61 26 128 88
155 143 88 176 425 874 465 963 28 61 132 279 233 485 101 206 237 488 303
625 66 138 161 336 212 440 51 105 256 532 458 950 201 418 401 834 445 925
44 91 108 223 142 295 l63 129 34 -69 c20 -39 93 -191 163 -340 70 -148 238
-502 373 -785 134 -283 257 -542 272 -575 37 -80 401 -845 558 -1170 117 -244
160 -334 348 -737 264 -567 532 -1120 561 -1158 114 -151 360 -203 536 -114
129 66 214 233 177 350 -11 35 -2258 4638 -2633 5394 -114 229 -183 281 -377
286 -58 2 -122 -1 -143 -6z"/>
</g>
</svg>
