<?xml version="1.0" standalone="no"?>
<!DOCTYPE svg PUBLIC "-//W3C//DTD SVG 20010904//EN"
 "http://www.w3.org/TR/2001/REC-SVG-20010904/DTD/svg10.dtd">
<svg version="1.0" xmlns="http://www.w3.org/2000/svg"
 width="1280.000000pt" height="1280.000000pt" viewBox="0 0 1280.000000 1280.000000"
 preserveAspectRatio="xMidYMid meet" style="background-color: #000000;">

<g transform="translate(0.000000,1280.000000) scale(0.100000,-0.100000)"
fill="#ffffff" stroke="none">
<path d="M690 12643 c-126 -21 -261 -92 -355 -187 -83 -84 -147 -202 -170
-311 -22 -106 -22 -11384 0 -11490 45 -218 215 -402 440 -477 l70 -23 5725 0
5725 0 82 28 c104 36 213 107 280 182 65 72 129 198 148 290 22 106 22 11384
0 11490 -23 109 -87 227 -170 311 -77 77 -145 120 -257 162 l-73 27 -5710 1
c-3141 1 -5721 -1 -5735 -3z m5902 -3245 c90 -41 133 -94 215 -258 375 -756
2622 -5359 2633 -5394 37 -117 -48 -284 -177 -350 -176 -89 -422 -37 -536 114
-29 38 -297 591 -561 1158 -188 403 -231 493 -348 737 -157 325 -521 1090
-558 1170 -15 33 -138 292 -272 575 -135 283 -303 637 -373 785 -70 149 -143
301 -163 340 l-34 69 -63 -129 c-34 -72 -98 -204 -142 -295 -44 -91 -244 -507
-445 -925 -202 -418 -407 -845 -458 -950 -51 -104 -146 -302 -212 -440 -66
-137 -202 -419 -303 -625 -101 -206 -205 -424 -233 -485 -40 -89 -377 -787
-465 -963 -27 -55 -94 -117 -155 -143 -26 -11 -82 -26 -124 -32 -184 -26 -350
49 -418 188 -34 70 -39 182 -12 250 11 28 378 782 816 1678 438 895 831 1700
875 1790 243 502 956 1955 969 1977 30 49 107 122 154 146 71 36 112 43 228
40 88 -2 114 -6 162 -28z"/>
</g>
</svg>

